<mxfile host="Electron" agent="Mozilla/5.0 (Windows NT 10.0; Win64; x64) AppleWebKit/537.36 (KHTML, like Gecko) draw.io/24.7.8 Chrome/128.0.6613.36 Electron/32.0.1 Safari/537.36" version="24.7.8">
  <diagram name="Page-1" id="magkBhk4KmJtrxDzVgJV">
    <mxGraphModel dx="532" dy="479" grid="1" gridSize="10" guides="0" tooltips="1" connect="1" arrows="1" fold="1" page="1" pageScale="1" pageWidth="1" pageHeight="1" math="0" shadow="0">
      <root>
        <mxCell id="0" />
        <mxCell id="1" parent="0" />
        <mxCell id="6Fi_e5lVrd8VuNeaOpWh-1" value="Módulo de Introdução ao Usuário" style="swimlane;whiteSpace=wrap;html=1;" parent="1" vertex="1">
          <mxGeometry x="160" y="-10" width="400" height="290" as="geometry" />
        </mxCell>
        <mxCell id="6Fi_e5lVrd8VuNeaOpWh-16" value="UC-26&lt;div&gt;Tour para iniciantes (novos usuários)&lt;/div&gt;" style="ellipse;whiteSpace=wrap;html=1;" parent="6Fi_e5lVrd8VuNeaOpWh-1" vertex="1">
          <mxGeometry x="110" y="110" width="180" height="80" as="geometry" />
        </mxCell>
        <mxCell id="XbBQ54yWR8MxngpIoZ2N-2" style="edgeStyle=none;curved=1;rounded=0;orthogonalLoop=1;jettySize=auto;html=1;fontSize=12;startSize=8;endSize=8;endArrow=none;endFill=0;" parent="1" source="6Fi_e5lVrd8VuNeaOpWh-2" edge="1">
          <mxGeometry relative="1" as="geometry">
            <mxPoint x="210" y="140" as="targetPoint" />
          </mxGeometry>
        </mxCell>
        <mxCell id="6Fi_e5lVrd8VuNeaOpWh-2" value="Usuário" style="shape=umlActor;verticalLabelPosition=bottom;verticalAlign=top;html=1;outlineConnect=0;" parent="1" vertex="1">
          <mxGeometry x="100" y="110" width="30" height="60" as="geometry" />
        </mxCell>
        <mxCell id="XbBQ54yWR8MxngpIoZ2N-3" value="" style="endArrow=none;html=1;rounded=0;fontSize=12;startSize=8;endSize=8;curved=1;entryX=0;entryY=0.5;entryDx=0;entryDy=0;" parent="1" target="6Fi_e5lVrd8VuNeaOpWh-16" edge="1">
          <mxGeometry width="50" height="50" relative="1" as="geometry">
            <mxPoint x="210" y="140" as="sourcePoint" />
            <mxPoint x="310" y="350" as="targetPoint" />
          </mxGeometry>
        </mxCell>
      </root>
    </mxGraphModel>
  </diagram>
</mxfile>
